<svg width="535" height="87" viewBox="0 0 535 87" fill="none" xmlns="http://www.w3.org/2000/svg">
<path d="M458.237 84.7594L448.493 85.3609C446.889 85.3609 446.087 84.9599 446.087 84.1579C446.087 83.6767 446.408 83.2757 447.049 82.9549C447.691 82.554 448.373 82.2332 449.094 81.9926C449.816 81.752 450.257 81.6317 450.418 81.6317C450.578 81.6317 450.979 81.4713 451.621 81.1505C452.262 80.8297 452.663 80.549 452.823 80.3084C453.625 79.5065 454.026 78.5842 454.026 77.5416V51.678C454.026 49.1918 453.706 47.227 453.064 45.7834C452.423 44.3399 451.179 43.4176 449.335 43.0166C448.693 42.8562 448.373 42.335 448.373 41.4528C448.373 40.5706 448.653 40.0894 449.215 40.0092C451.059 39.6082 452.904 38.9266 454.748 37.9642C456.673 37.0018 458.638 35.839 460.643 34.4756L462.447 33.3929H462.567C462.888 33.3929 463.169 33.6335 463.41 34.1147L462.808 41.8137C462.808 42.6156 462.888 43.0968 463.049 43.2572C468.743 37.884 475.078 35.1974 482.055 35.1974C487.749 35.1974 491.479 37.6033 493.243 42.4152C493.644 43.2973 494.085 43.7384 494.566 43.7384C494.967 43.7384 495.809 42.9765 497.092 41.4528C498.376 40.0092 500.621 38.6058 503.829 37.2424C507.037 35.8791 510.485 35.1974 514.175 35.1974C516.58 35.1974 518.666 35.9593 520.43 37.483C522.274 39.0068 523.678 41.0518 524.64 43.6181C525.603 46.1042 526.084 48.871 526.084 51.9186V77.5416C526.084 79.1456 526.565 80.1881 527.527 80.6693C528.57 81.1505 529.933 81.6718 531.617 82.2332C533.221 82.8748 534.023 83.5163 534.023 84.1579C534.023 84.9599 533.221 85.3609 531.617 85.3609L522.114 84.7594L512.129 85.3609C510.526 85.3609 509.724 84.9599 509.724 84.1579C509.724 83.4361 510.646 82.7545 512.49 82.1129C512.651 82.1129 512.811 82.0728 512.972 81.9926C515.698 81.1104 517.222 80.0277 517.543 78.7446C517.623 78.5842 517.663 78.3837 517.663 78.1431C517.663 77.9025 517.663 77.702 517.663 77.5416V52.2794C517.663 49.3121 516.701 46.6656 514.776 44.3399C512.851 42.0142 510.606 40.8513 508.039 40.8513C503.789 40.8513 500.421 41.8137 497.935 43.7384C495.448 45.6631 494.205 48.6706 494.205 52.7606V77.5416C494.205 78.4238 494.326 78.9852 494.566 79.2258L495.047 79.9475C495.208 80.2683 495.408 80.4688 495.649 80.549C496.05 80.6292 496.29 80.7495 496.371 80.9099C496.531 81.0703 496.812 81.1906 497.213 81.2708C497.614 81.351 497.854 81.4713 497.935 81.6317C498.576 81.9525 499.138 82.1129 499.619 82.1129C501.463 82.7545 502.385 83.4361 502.385 84.1579C502.385 84.9599 501.584 85.3609 499.98 85.3609L490.115 84.7594L480.131 85.3609C478.527 85.3609 477.725 84.9599 477.725 84.1579C477.725 83.4361 478.848 82.7144 481.093 81.9926C483.339 81.2708 484.702 80.5089 485.183 79.707C485.584 78.905 485.785 78.1832 485.785 77.5416V52.2794C485.785 49.3121 484.822 46.6656 482.898 44.3399C480.973 42.0142 478.727 40.8513 476.161 40.8513C471.91 40.8513 468.542 41.8137 466.056 43.7384C463.65 45.5829 462.447 48.5904 462.447 52.7606V77.5416C462.447 79.0654 462.888 80.1079 463.77 80.6693C464.733 81.1505 465.374 81.4312 465.695 81.5114C468.823 82.3134 470.387 83.2356 470.387 84.2782C470.387 85 469.585 85.3609 467.981 85.3609L458.237 84.7594Z" fill="#1E1E1E"/>
<path d="M427.15 81.9926C426.028 83.0352 424.343 84.0777 422.098 85.1203C419.933 86.1628 417.527 86.6841 414.88 86.6841C413.116 86.6841 411.392 86.2029 409.707 85.2406C408.104 84.3584 406.78 83.1955 405.738 81.752C404.695 80.2282 404.174 78.7045 404.174 77.1807C404.174 72.3689 407.101 68.76 412.955 66.3541L425.226 61.3016C426.749 60.6601 427.672 60.0987 427.992 59.6175C428.313 59.1363 428.514 58.0938 428.594 56.4898L428.835 49.0314V48.7908C428.835 46.7057 428.153 44.9013 426.79 43.3775C425.506 41.8538 424.023 41.0919 422.339 41.0919C420.574 41.0919 418.93 41.533 417.406 42.4152C415.883 43.2171 414.92 43.979 414.519 44.7008C414.118 45.5028 413.918 46.3448 413.918 47.227L414.038 48.9111C414.038 49.3923 413.477 49.9537 412.354 50.5953C411.231 51.2369 410.028 51.8384 408.745 52.3997C407.462 52.8809 406.54 53.1215 405.978 53.1215C405.176 53.1215 404.775 52.7606 404.775 52.0388C404.775 50.1943 405.417 48.43 406.7 46.7458C407.983 45.0617 409.627 43.4577 411.632 41.934C413.717 40.4102 415.883 39.0469 418.128 37.8439C421.416 36.0796 424.544 35.1974 427.511 35.1974C430.318 35.1974 432.684 36.24 434.609 38.3251C436.534 40.4102 437.456 42.9364 437.376 45.9037L436.774 71.8877V72.6095C436.774 78.3035 438.218 81.1505 441.105 81.1505C443.029 81.1505 444.633 80.5891 445.917 79.4664C446.077 79.306 446.277 79.2258 446.518 79.2258C446.839 79.2258 447.12 79.3461 447.36 79.5867C447.681 79.8273 447.841 80.148 447.841 80.549V80.6693C447.521 81.3109 446.839 82.1129 445.796 83.0752C444.754 84.0376 443.551 84.8797 442.187 85.6015C440.824 86.3232 439.501 86.6841 438.218 86.6841C436.213 86.6841 434.529 86.1628 433.165 85.1203C431.882 84.0777 430.96 83.0352 430.398 81.9926C429.837 80.95 429.476 80.4287 429.316 80.4287C428.915 80.4287 428.193 80.95 427.15 81.9926ZM413.798 74.5342C413.798 76.6194 414.439 78.2634 415.722 79.4664C417.005 80.5891 418.569 81.1505 420.414 81.1505C422.258 81.1505 424.023 80.4287 425.707 78.9852C427.391 77.5416 428.273 75.5768 428.353 73.0907L428.594 67.1962V66.5947C428.594 65.3115 428.233 64.6699 427.511 64.6699C427.03 64.6699 426.469 64.7902 425.827 65.0308C417.807 67.7575 413.798 70.9253 413.798 74.5342Z" fill="#1E1E1E"/>
<path d="M390.194 84.7593L380.45 85.3608C378.846 85.3608 378.044 84.9598 378.044 84.1579C378.044 83.4361 379.167 82.7143 381.412 81.9925C383.738 81.2708 385.061 80.5089 385.382 79.7069C385.783 78.9049 385.983 78.1832 385.983 77.5416V16.9123C385.983 11.8599 384.139 8.93268 380.45 8.1307C379.808 7.97031 379.488 7.44903 379.488 6.56686C379.488 5.68469 379.768 5.2035 380.33 5.1233C382.415 4.64212 387.066 3.03817 394.284 0.311457H394.404L394.525 0.191162C395.006 0.191162 395.246 0.471854 395.246 1.03324L395.006 3.19857C394.845 4.72232 394.685 6.68715 394.525 9.09307C394.444 11.4188 394.404 14.1856 394.404 17.3935V77.5416C394.404 79.1455 394.885 80.1881 395.848 80.6693C396.89 81.1505 398.254 81.6717 399.938 82.2331C401.542 82.8747 402.344 83.5163 402.344 84.1579C402.344 84.9598 401.542 85.3608 399.938 85.3608L390.194 84.7593Z" fill="#1E1E1E"/>
<path d="M316.021 84.8797L301.585 85.6015C299.26 85.6015 298.097 85.0802 298.097 84.0376C298.097 82.9951 299.42 82.0728 302.066 81.2708C306.878 79.8273 310.327 76.7397 312.412 72.008C320.031 54.4448 327.529 35.5984 334.907 15.4688C335.95 12.9025 336.471 11.058 336.471 9.93521C336.471 8.97284 336.511 8.49166 336.591 8.49166C339.398 7.52929 341.083 6.72732 341.644 6.08574C341.884 5.76495 342.085 5.52435 342.245 5.36396C342.406 5.12337 342.526 4.92287 342.606 4.76248C343.007 4.0407 343.288 3.67981 343.448 3.67981C343.849 3.67981 344.25 4.24119 344.651 5.36396C347.619 14.6669 350.867 24.6915 354.395 35.438C358.004 46.1042 361.894 57.4923 366.064 69.6021C367.588 74.0129 369.272 77.0203 371.116 78.6243C373.041 80.148 375.367 81.1505 378.094 81.6317C380.82 82.1129 382.184 83.0352 382.184 84.3985C382.184 85.2005 381.021 85.6015 378.695 85.6015L361.974 84.8797L349.343 85C347.017 85 345.854 84.5188 345.854 83.5564C345.854 82.3535 347.178 81.5916 349.824 81.2708C354.716 80.4688 357.162 78.6644 357.162 75.8575C357.162 73.612 355.638 67.3165 352.591 56.971C352.35 56.0888 351.268 55.6477 349.343 55.6477H326.366C325.484 55.6477 324.802 56.3695 324.321 57.8131C321.113 66.9556 319.509 72.4892 319.509 74.4139C319.509 76.1783 320.151 77.6619 321.434 78.8649C322.797 79.9877 324.642 80.8698 326.968 81.5114C329.293 82.153 330.456 82.9149 330.456 83.797C330.456 84.6792 329.293 85.1203 326.968 85.1203L316.021 84.8797ZM327.329 49.6329C327.329 50.1943 328.171 50.475 329.855 50.475H348.501C349.624 50.475 350.185 50.2745 350.185 49.8735L349.944 48.6706L340.441 19.9198C339.96 18.4762 339.639 17.7545 339.479 17.7545C339.238 17.7545 338.877 18.4361 338.396 19.7995L327.569 48.6706L327.329 49.6329Z" fill="#1E1E1E"/>
<path d="M254.523 84.7594L244.779 85.3609C243.175 85.3609 242.373 84.9599 242.373 84.158C242.373 83.4362 243.095 82.8347 244.538 82.3535C245.982 81.8723 246.944 81.5515 247.425 81.3912C247.907 81.1506 248.428 80.7095 248.989 80.0679C249.471 79.4263 249.711 78.5842 249.711 77.5417V51.678C249.711 46.6256 248.067 43.7385 244.779 43.0167C244.137 42.8563 243.817 42.335 243.817 41.4528C243.817 40.5707 244.097 40.0895 244.659 40.0093C247.626 39.4479 249.872 38.6459 251.395 37.6034C252.759 36.7212 253.881 35.9994 254.764 35.438C255.726 34.8767 256.408 34.4356 256.809 34.1148C257.691 33.6336 258.132 33.3529 258.132 33.2727H258.493C258.733 33.2727 258.894 33.5534 258.974 34.1148C258.974 35.1573 258.974 36.1999 258.974 37.2425C258.974 38.285 258.934 39.3276 258.854 40.3702C258.773 42.3751 258.773 43.3776 258.854 43.3776C258.854 43.3776 259.054 43.1771 259.455 42.7761C260.578 41.3325 261.3 40.5306 261.62 40.3702C265.39 36.9217 269.079 35.1974 272.688 35.1974C274.372 35.1974 275.735 35.5583 276.778 36.2801C277.901 37.0019 278.462 37.9643 278.462 39.1672C278.462 40.3702 277.941 41.6934 276.898 43.137C275.936 44.5805 275.013 45.3023 274.131 45.3023C273.249 45.3023 271.966 44.9414 270.282 44.2197C268.598 43.4979 267.355 43.137 266.553 43.137C264.227 43.137 262.222 43.8989 260.538 45.4226C258.934 46.9464 258.132 49.5528 258.132 53.2419V76.9402C258.212 79.0253 260.377 80.7496 264.628 82.1129C266.472 82.7545 267.395 83.4362 267.395 84.158C267.395 84.9599 266.593 85.3609 264.989 85.3609L254.523 84.7594Z" fill="#1E1E1E"/>
<path d="M222.835 81.9926C221.712 83.0352 220.028 84.0777 217.783 85.1203C215.617 86.1628 213.211 86.6841 210.565 86.6841C208.8 86.6841 207.076 86.2029 205.392 85.2406C203.788 84.3584 202.465 83.1955 201.422 81.752C200.38 80.2282 199.858 78.7045 199.858 77.1807C199.858 72.3689 202.786 68.76 208.64 66.3541L220.91 61.3016C222.434 60.6601 223.356 60.0987 223.677 59.6175C223.998 59.1363 224.198 58.0938 224.279 56.4898L224.519 49.0314V48.7908C224.519 46.7057 223.837 44.9013 222.474 43.3775C221.191 41.8538 219.707 41.0919 218.023 41.0919C216.259 41.0919 214.615 41.533 213.091 42.4152C211.567 43.2171 210.605 43.979 210.204 44.7008C209.803 45.5028 209.602 46.3448 209.602 47.227L209.723 48.9111C209.723 49.3923 209.161 49.9537 208.039 50.5953C206.916 51.2369 205.713 51.8384 204.43 52.3997C203.146 52.8809 202.224 53.1215 201.663 53.1215C200.861 53.1215 200.46 52.7606 200.46 52.0388C200.46 50.1943 201.101 48.43 202.385 46.7458C203.668 45.0617 205.312 43.4577 207.317 41.934C209.402 40.4102 211.567 39.0469 213.813 37.8439C217.101 36.0796 220.229 35.1974 223.196 35.1974C226.003 35.1974 228.369 36.24 230.293 38.3251C232.218 40.4102 233.14 42.9364 233.06 45.9037L232.459 71.8877V72.6095C232.459 78.3035 233.902 81.1505 236.789 81.1505C238.714 81.1505 240.318 80.5891 241.601 79.4664C241.762 79.306 241.962 79.2258 242.203 79.2258C242.523 79.2258 242.804 79.3461 243.045 79.5867C243.365 79.8273 243.526 80.148 243.526 80.549V80.6693C243.205 81.3109 242.523 82.1129 241.481 83.0752C240.438 84.0376 239.235 84.8797 237.872 85.6015C236.509 86.3232 235.185 86.6841 233.902 86.6841C231.897 86.6841 230.213 86.1628 228.85 85.1203C227.567 84.0777 226.644 83.0352 226.083 81.9926C225.522 80.95 225.161 80.4287 225 80.4287C224.599 80.4287 223.878 80.95 222.835 81.9926ZM209.482 74.5342C209.482 76.6194 210.124 78.2634 211.407 79.4664C212.69 80.5891 214.254 81.1505 216.098 81.1505C217.943 81.1505 219.707 80.4287 221.391 78.9852C223.076 77.5416 223.958 75.5768 224.038 73.0907L224.279 67.1962V66.5947C224.279 65.3115 223.918 64.6699 223.196 64.6699C222.715 64.6699 222.153 64.7902 221.512 65.0308C213.492 67.7575 209.482 70.9253 209.482 74.5342Z" fill="#1E1E1E"/>
<path d="M169.429 85L159.805 85.6015C159.484 85.6015 159.124 85.3609 158.723 84.8797C158.322 84.3183 158.121 83.797 158.121 83.3158C158.121 82.7544 159.605 80.5089 162.572 76.5792C165.539 72.3288 168.868 67.3565 172.557 61.6625C176.326 55.9685 180.456 49.5527 184.947 42.4151C185.108 42.2548 185.188 42.0543 185.188 41.8137C185.188 41.4127 184.747 41.2122 183.864 41.2122H169.79C168.667 41.2122 167.464 42.0944 166.181 43.8587C166.021 44.0993 165.82 44.38 165.579 44.7008C165.419 44.9414 165.178 45.2622 164.858 45.6631C164.216 46.6255 163.855 47.1468 163.775 47.227C163.534 47.5478 163.254 47.9488 162.933 48.43C162.612 48.8309 162.331 49.1517 162.091 49.3923C161.289 50.1943 160.687 50.5953 160.286 50.5953C159.645 50.5953 159.324 50.074 159.324 49.0314C159.324 48.7908 159.404 48.43 159.565 47.9488C160.928 44.5805 161.61 40.9716 161.61 37.1221C161.61 36.5607 161.81 36.0795 162.211 35.6786C162.692 35.1974 163.093 34.9568 163.414 34.9568C163.815 34.9568 164.336 35.2375 164.978 35.7989C165.78 36.4404 167.584 36.7612 170.391 36.7612L174.963 36.6409C182.581 36.6409 190.04 36.5206 197.338 36.28C197.658 36.28 197.899 36.4805 198.059 36.8815C198.3 37.2023 198.34 37.483 198.18 37.7236C196.496 39.7285 194.972 41.7335 193.608 43.7384L170.391 78.9852C170.311 79.0654 170.271 79.2258 170.271 79.4664C170.271 79.7871 170.431 80.1079 170.752 80.4287C171.153 80.6693 171.514 80.7896 171.835 80.7896H185.91C187.513 80.7896 189.077 80.0277 190.601 78.504C192.205 76.9802 194.09 74.6545 196.255 71.5268C197.217 69.6021 198.1 68.6397 198.901 68.6397C199.543 68.6397 199.864 69.3615 199.864 70.805C199.864 71.5268 199.703 72.6496 199.383 74.1733C199.062 75.6169 198.661 77.1406 198.18 78.7446C197.699 80.3485 197.217 81.752 196.736 82.9549C196.335 84.0777 196.054 84.7594 195.894 85C195.493 85.401 195.132 85.6015 194.811 85.6015L185.789 85.2406C182.982 85.1604 180.175 85.0802 177.368 85C174.642 85 171.995 85 169.429 85Z" fill="#1E1E1E"/>
<path d="M150.769 17.2733C150.689 18.9574 150.087 20.3609 148.965 21.4837C147.842 22.6064 146.398 23.2079 144.634 23.2881C142.87 23.2079 141.426 22.6064 140.303 21.4837C139.181 20.3609 138.619 18.9173 138.619 17.153C138.619 15.3886 139.181 13.9451 140.303 12.8223C141.426 11.6996 142.87 11.1382 144.634 11.1382C146.398 11.1382 147.842 11.6996 148.965 12.8223C150.087 13.9451 150.689 15.4287 150.769 17.2733ZM145.476 84.7594L135.732 85.3609C134.128 85.3609 133.326 84.9599 133.326 84.1579C133.326 83.4361 134.449 82.7144 136.694 81.9926C139.02 81.2708 140.343 80.5089 140.664 79.707C141.065 78.905 141.266 78.1832 141.266 77.5416V51.4374C141.266 46.4651 139.381 43.5379 135.612 42.6558C134.97 42.4954 134.649 41.9741 134.649 41.0919C134.649 40.2097 134.93 39.7286 135.492 39.6484C139.341 38.686 143.431 36.8014 147.762 33.9944C149.045 33.1925 149.767 32.7915 149.927 32.7915C150.488 32.7915 150.769 32.992 150.769 33.393C150.047 40.6909 149.686 46.1043 149.686 49.6329V77.5416C149.686 79.1456 150.168 80.1882 151.13 80.6693C152.173 81.1505 153.536 81.6718 155.22 82.2332C156.824 82.8748 157.626 83.5163 157.626 84.1579C157.626 84.9599 156.824 85.3609 155.22 85.3609L145.476 84.7594Z" fill="#1E1E1E"/>
<path d="M87.7769 84.7593L78.0329 85.3608C76.4289 85.3608 75.627 84.9598 75.627 84.1579C75.627 83.4361 76.3487 82.8346 77.7923 82.3534C79.2358 81.8722 80.5591 81.3509 81.7621 80.7896C82.965 80.2282 83.5665 79.0252 83.5665 77.1807V16.9123C83.5665 11.7797 81.7621 8.85248 78.1532 8.1307C77.5116 7.97031 77.1908 7.44903 77.1908 6.56686C77.1908 5.68469 77.4715 5.2035 78.0329 5.1233C80.118 4.64212 84.7695 3.03817 91.9872 0.311457L92.2278 0.191162C92.709 0.191162 92.9496 0.672348 92.9496 1.63472C92.9496 2.1159 92.9095 2.47679 92.8293 2.71738C92.5085 4.48172 92.2679 6.60695 92.1075 9.09307C92.0273 11.499 91.9872 14.2658 91.9872 17.3935V38.325C91.9872 40.4102 92.308 41.8938 92.9496 42.776C99.8466 37.7236 105.901 35.1973 111.114 35.1973C115.044 35.1973 118.292 36.7612 120.858 39.8889C123.505 43.0166 124.828 46.9062 124.828 51.5576V76.8198C124.828 79.3861 126.472 81.1505 129.76 82.1128C131.605 82.7544 132.527 83.4361 132.527 84.1579C132.527 84.9598 131.725 85.3608 130.121 85.3608L120.738 84.7593L111.355 85.3608C109.751 85.3608 108.949 84.9598 108.949 84.1579C108.949 83.4361 109.871 82.7544 111.716 82.1128C114.843 81.1505 116.407 79.3861 116.407 76.8198V52.2794C116.407 50.3546 115.846 48.5903 114.723 46.9864C113.6 45.3022 112.197 43.979 110.513 43.0166C108.829 41.974 107.064 41.4527 105.22 41.4527C100.809 41.4527 97.4807 42.3349 95.2352 44.0993C93.9521 45.1418 93.0699 46.2646 92.5887 47.4675C92.1877 48.5903 91.9872 50.3546 91.9872 52.7606V77.1807C92.1476 79.6668 93.6714 81.3109 96.5585 82.1128C98.403 82.7544 99.3253 83.4361 99.3253 84.1579C99.3253 84.9598 98.5233 85.3608 96.9194 85.3608L87.7769 84.7593Z" fill="#1E1E1E"/>
<path d="M18.6459 84.7594L3.48859 85.6015C1.16286 85.6015 0 85.1203 0 84.1579C0 83.2758 1.44355 82.554 4.33066 81.9926C7.13757 81.5114 9.10241 80.6293 10.2252 79.3461C11.4281 77.9827 12.0296 75.8174 12.0296 72.8501V18.7169C12.0296 15.9901 11.4281 14.0253 10.2252 12.8223C9.10241 11.6194 7.13757 10.7372 4.33066 10.1758C1.44355 9.69464 0 8.89267 0 7.76991C0 6.88773 1.16286 6.44664 3.48859 6.44664L16.9618 6.68724L28.6305 6.44664C30.9562 6.44664 32.1191 6.88773 32.1191 7.76991C32.1191 8.89267 30.7557 9.69464 28.029 10.1758C25.3023 10.657 23.5379 11.5392 22.736 12.8223C22.0142 14.1055 21.6533 16.0703 21.6533 18.7169V41.2122C21.6533 42.736 21.8538 43.4979 22.2548 43.4979C23.137 43.4979 24.2196 42.7761 25.5028 41.3325L49.562 16.7921C50.765 15.5892 51.3664 14.306 51.3664 12.9426C51.3664 11.5793 50.6046 10.7372 49.0808 10.4164C46.5947 9.85504 45.3516 9.05306 45.3516 8.01049C45.3516 7.12833 46.5145 6.68724 48.8402 6.68724H55.3362C59.8273 6.68724 63.5966 6.64714 66.6441 6.56695C69.7718 6.48674 72.2178 6.36645 73.9821 6.20605H74.8242C76.5885 6.20605 77.4707 6.64714 77.4707 7.52931C77.4707 8.65207 76.1474 9.45405 73.5009 9.93524C68.5287 10.8174 63.8371 12.5817 59.4263 15.2283C55.0956 17.8748 50.7249 21.3233 46.314 25.5737C41.9833 29.744 37.2517 34.6761 32.1191 40.3702C31.9587 40.6909 31.8785 40.9315 31.8785 41.0919C31.8785 41.4929 32.1592 41.9741 32.7205 42.5355L61.8322 73.5719C63.7569 75.657 65.2807 77.2209 66.4035 78.2634C67.5262 79.306 68.6891 80.0679 69.8921 80.5491C71.095 81.0302 72.6589 81.5114 74.5836 81.9926C77.5509 82.554 79.0346 83.3159 79.0346 84.2782C79.0346 85.1604 77.8717 85.6015 75.546 85.6015L58.8248 85L49.0808 85.1203C46.7551 85.1203 45.5922 84.6792 45.5922 83.7971C45.5922 82.9149 46.715 82.1931 48.9605 81.6317C51.1259 81.1505 52.2085 80.3887 52.2085 79.3461C52.2085 78.6243 51.607 77.6218 50.4041 76.3387L24.9013 48.1894C23.5379 46.826 22.6157 46.1444 22.1345 46.1444C21.8137 46.1444 21.6533 47.7483 21.6533 50.9562C21.6533 51.678 21.6132 52.6003 21.533 53.723C21.533 54.8458 21.533 56.0888 21.533 57.4522C21.533 59.7779 21.6132 62.3041 21.7736 65.0309C22.0142 67.6774 22.4152 70.2437 22.9766 72.7298C23.5379 75.2159 24.38 77.3011 25.5028 78.9852C26.6255 80.6693 28.1092 81.7119 29.9537 82.1129C32.6003 82.5941 33.9235 83.2758 33.9235 84.1579C33.9235 85.1203 32.7606 85.6015 30.4349 85.6015C29.3122 85.6015 28.1894 85.5614 27.0666 85.4812C25.9439 85.401 24.8612 85.2807 23.8186 85.1203C21.8137 84.8797 20.0895 84.7594 18.6459 84.7594Z" fill="#1E1E1E"/>
</svg>
